<?xml version="1.0" encoding="utf-8"?>
<!-- Generator: Adobe Illustrator 25.0.1, SVG Export Plug-In . SVG Version: 6.00 Build 0)  -->
<svg version="1.1" id="Layer_1" xmlns="http://www.w3.org/2000/svg" xmlns:xlink="http://www.w3.org/1999/xlink" x="0px" y="0px"
	 viewBox="0 0 1080 1080" style="enable-background:new 0 0 1080 1080;" xml:space="preserve">
<path d="M644.62,257.96c0,0-16.34-194.1-89.77-189.03c0,0-124.88-36.53-251.48,305.29c0,0-20.4-114.33-76.18-155.85
	c0,0,69.05,92.95,59.9,196.65c0,0-40.88-139.16-100.38-165.52l1,1c14.43,19.17,81.07,92.24,81.58,188.34
	c0.01,1.35-0.43,2.75-0.67,4.25c-0.47,2.94,3.98,10.18,3.38,13.69c-0.56,3.26-6.77,6.16-7.43,9.88
	c-16.01,90.47-59.09,304.97-52.23,341.54c0,0,28.47-26.12,28.47-46.37c0,0,90.84,257.39,146.54,254.86c0,0,43.02-40.99,43.02-89.1
	c0,0,80.73,56.32,126.31,51.25c0,0,92.11-80.22-80.06-373.94c0,0,247.71-5.09,351.52-331.72
	C828.14,273.19,821.86,230.11,644.62,257.96z M372.84,926.5c-60.77,10.13-115.16-249.49-115.16-249.49
	c-7.02-28.57,27.85-192.43,108.88-389.93c81.02-197.5,197.5-141.79,197.5-141.79c22.79,35.45-54.44,119.01-54.44,119.01
	c67.1-50.64,69.63,0,69.63,0c0,40.51-45.58,70.9-45.58,70.9c21.52-6.33,34.18-6.33,41.46-4.75c3.13,0.68,5.26,1.65,6.68,2.54
	c1.88,1.18,2.5,2.21,2.5,2.21c74.27,169.65-259.18,229.39-259.18,229.39C426.41,655.74,433.61,916.37,372.84,926.5z M536.2,823.87
	c0,0,20.26,81.65-26.59,81.34c0,0-67.1-20.57-72.16-35.76c-5.06-15.19,27.85-168.38-75.96-303.21
	C361.49,566.23,472.9,527.62,536.2,823.87z M744.72,305.09c-4.32,8.91-14.13,19.79-35.16,30.7c-7.16,3.71-8.95,13.16-3.71,19.3
	c11.53,13.53,25.91,34.24,12.66,40.87c-16.38,16.38-57.17,23.31-71.35,20.05c8.78,7.55,25.46,25.46,20.71,33.13
	c-32.92,53.17-118.6,151.92-242.87,108.88c0,0,290.98-96.22,217.55-273.46h89.06C742.17,284.55,749.34,295.58,744.72,305.09z"/>
</svg>
